#!OML:ASF X:\für Bonn\!DataBase\2005_08_12_Daniel\c3d\Daniel.ASF
:FULLY-SPECIFIED
:DEGREES
181
root 0.888314 7.62553 0.420621 143.692 -19.5744 -178.373
lowerback 78.5904 -8.86159 18.8029
upperback 9.27435 -4.97116 2.52991
thorax -8.9076 -6.73668 -0.965396
lowerneck 6.63582 -9.81275 -1.18899
upperneck 13.9775 -15.3115 5.53061
head 4.0994 -7.76905 1.7404
rclavicle 5.56597e-014 1.59028e-014
rhumerus 5.1445 9.93435 -59.4014
rradius 27.7188
rwrist -5.53174
rhand -15.5069 5.81456
rfingers 7.12502
rthumb 10.6758 -23.8942
lclavicle 5.56597e-014 1.59028e-014
lhumerus -23.8483 7.10723 92.0467
lradius 36.8963
lwrist -13.0648
lhand -11.0653 -7.4834
lfingers 7.12502
lthumb 14.9576 21.9565
rfemur -6.93494 -59.3455 -89.4588
rtibia 148.818
rfoot -24.2066 66.3109
rtoes -7.97082
lfemur -45.1883 57.3301 39.5237
ltibia 150.196
lfoot -48.7311 -65.4614
ltoes 6.1749
182
root 0.888772 7.7291 0.431123 144.132 -19.4859 -178.38
lowerback 78.1974 -8.67017 18.6025
upperback 9.27025 -4.90143 2.53109
thorax -8.98969 -6.66504 -0.947456
lowerneck 6.75427 -9.77708 -1.19494
upperneck 13.8765 -15.2579 5.59188
head 4.04548 -7.74728 1.77303
rclavicle 3.65764e-014 6.36111e-015
rhumerus 5.34621 9.26289 -59.5814
rradius 27.2953
rwrist -3.97667
rhand -15.0207 5.78233
rfingers 7.12502
rthumb 11.1447 -23.9017
lclavicle 3.65764e-014 6.36111e-015
lhumerus -23.6045 7.28712 91.8717
lradius 36.5983
lwrist -13.224
lhand -11.2425 -7.48345
lfingers 7.12502
lthumb 14.7869 21.969
rfemur -9.0483 -59.6101 -85.4649
rtibia 148.032
rfoot -22.1268 65.409
rtoes -7.69721
lfemur -46.8859 56.0351 36.1933
ltibia 149.44
lfoot -46.5947 -64.4623
ltoes 6.07184
183
root 0.888935 7.83561 0.441619 144.577 -19.3889 -178.377
lowerback 77.7479 -8.4608 18.4032
upperback 9.2975 -4.82941 2.54547
thorax -9.03841 -6.59361 -0.922311
lowerneck 6.86674 -9.74969 -1.19155
upperneck 13.7302 -15.2014 5.63627
head 3.97335 -7.72323 1.79966
rclavicle -1.59028e-015 3.97569e-014
rhumerus 5.56083 8.66441 -59.7184
rradius 26.8912
rwrist -2.5111
rhand -14.6279 5.80186
rfingers 7.12502
rthumb 11.5236 -23.8614
lclavicle -1.59028e-015 3.97569e-014
lhumerus -23.347 7.43617 91.6799
lradius 36.3098
lwrist -13.4013
lhand -11.4035 -7.47119
lfingers 7.12502
lthumb 14.6318 21.9926
rfemur -11.0185 -59.7367 -81.6396
rtibia 147.231
rfoot -20.3962 64.508
rtoes -7.30128
lfemur -48.426 54.6171 33.0414
ltibia 148.675
lfoot -44.9179 -63.3429
ltoes 5.79308
184
root 0.888934 7.94564 0.453256 145.018 -19.3009 -178.38
lowerback 77.3281 -8.25465 18.1859
upperback 9.29851 -4.75578 2.56274
thorax -9.11514 -6.52148 -0.883009
lowerneck 6.89923 -9.70834 -1.22741
upperneck 13.6967 -15.1515 5.69167
head 3.96171 -7.70212 1.82761
rclavicle -1.43125e-014 4.13472e-014
rhumerus 5.69934 8.16847 -59.8398
rradius 26.5937
rwrist -1.16485
rhand -14.405 5.71631
rfingers 7.12502
rthumb 11.7385 -23.9348
lclavicle -1.43125e-014 4.13472e-014
lhumerus -23.1175 7.64617 91.467
lradius 35.9974
lwrist -13.6178
lhand -11.5579 -7.47295
lfingers 7.12502
lthumb 14.483 22.0016
rfemur -13.0459 -59.729 -77.7567
rtibia 146.409
rfoot -19.0883 63.5946
rtoes -7.05334
lfemur -49.8174 53.0487 29.9729
ltibia 147.863
lfoot -43.2903 -62.151
ltoes 5.56059
185
root 0.888829 8.06011 0.465233 145.511 -19.2155 -178.422
lowerback 76.8252 -8.02132 17.948
upperback 9.35584 -4.69877 2.55909
thorax -9.13774 -6.45081 -0.86599
lowerneck 6.82424 -9.68137 -1.14575
upperneck 13.6687 -15.0985 5.66753
head 3.9524 -7.67149 1.80446
rclavicle 1.11319e-014 5.56597e-015
rhumerus 5.89336 7.5956 -60.0086
rradius 26.2849
rwrist 0.121024
rhand -14.2299 5.69338
rfingers 7.12502
rthumb 11.9074 -23.948
lclavicle 1.11319e-014 5.56597e-015
lhumerus -22.8327 7.87142 91.2242
lradius 35.7014
lwrist -13.8718
lhand -11.6518 -7.44483
lfingers 7.12502
lthumb 14.3925 22.0362
rfemur -15.4966 -59.645 -73.4372
rtibia 145.548
rfoot -17.7426 62.5683
rtoes -6.76293
lfemur -51.2133 51.317 26.7903
ltibia 147.02
lfoot -41.7779 -60.7752
ltoes 5.15579
186
root 0.888911 8.17805 0.477188 145.992 -19.1134 -178.424
lowerback 76.3695 -7.78806 17.6968
upperback 9.35536 -4.61472 2.59422
thorax -9.21917 -6.37369 -0.799738
lowerneck 6.82972 -9.63487 -1.16106
upperneck 13.6416 -15.0302 5.64889
head 3.93735 -7.64164 1.80366
rclavicle 4.6118e-014 -7.39479e-014
rhumerus 6.01746 7.23824 -60.0759
rradius 26.052
rwrist 1.17572
rhand -14.0792 5.59965
rfingers 7.12502
rthumb 12.0527 -24.0333
lclavicle 4.6118e-014 -7.39479e-014
lhumerus -22.6466 8.1988 90.9942
lradius 35.4191
lwrist -14.2131
lhand -11.757 -7.44137
lfingers 7.12502
lthumb 14.2912 22.0468
rfemur -17.9379 -59.4165 -69.0663
rtibia 144.674
rfoot -16.7 61.4423
rtoes -6.51294
lfemur -52.3822 49.5303 23.9327
ltibia 146.143
lfoot -40.3252 -59.4659
ltoes 4.90559
187
root 0.889414 8.29935 0.489058 146.494 -18.9999 -178.443
lowerback 75.8697 -7.54604 17.4506
upperback 9.3931 -4.53693 2.60172
thorax -9.2598 -6.29472 -0.772464
lowerneck 6.73325 -9.58911 -1.1212
upperneck 13.6576 -14.9661 5.64824
head 3.95353 -7.60678 1.79252
rclavicle 6.36111e-015 7.95139e-015
rhumerus 6.16031 6.77632 -60.2164
rradius 25.8118
rwrist 2.17741
rhand -13.9646 5.50351
rfingers 7.12502
rthumb 12.1632 -24.1229
lclavicle 6.36111e-015 7.95139e-015
lhumerus -22.4173 8.48748 90.7199
lradius 35.1555
lwrist -14.4971
lhand -11.7562 -7.35197
lfingers 7.12502
lthumb 14.2919 22.1362
rfemur -20.6985 -59.0166 -64.3384
rtibia 143.766
rfoot -15.6866 60.2354
rtoes -6.44073
lfemur -53.3133 47.7353 21.299
ltibia 145.232
lfoot -39.2446 -58.113
ltoes 4.66706
